<?xml version="1.0" encoding="UTF-8" standalone="no"?>
<!-- Generator: Adobe Illustrator 25.4.1, SVG Export Plug-In . SVG Version: 6.00 Build 0)  -->

<svg
   version="1.1"
   id="Layer_1"
   x="0px"
   y="0px"
   viewBox="0 0 555.2 530"
   style="enable-background:new 0 0 555.2 530;"
   xml:space="preserve"
   sodipodi:docname="iGEM logo.svg"
   inkscape:version="1.1.2 (0a00cf5339, 2022-02-04, custom)"
   xmlns:inkscape="http://www.inkscape.org/namespaces/inkscape"
   xmlns:sodipodi="http://sodipodi.sourceforge.net/DTD/sodipodi-0.dtd"
   xmlns="http://www.w3.org/2000/svg"
   xmlns:svg="http://www.w3.org/2000/svg"><defs
   id="defs99" /><sodipodi:namedview
   id="namedview97"
   pagecolor="#505050"
   bordercolor="#eeeeee"
   borderopacity="1"
   inkscape:pageshadow="0"
   inkscape:pageopacity="0"
   inkscape:pagecheckerboard="0"
   showgrid="false"
   inkscape:zoom="5.4264151"
   inkscape:cx="125.77364"
   inkscape:cy="452.78512"
   inkscape:window-width="2400"
   inkscape:window-height="1281"
   inkscape:window-x="1080"
   inkscape:window-y="317"
   inkscape:window-maximized="1"
   inkscape:current-layer="Layer_1" />
<style
   type="text/css"
   id="style2">
	.st0{fill:#FDE293;}
	.st1{fill:#DF1618;}
	.st2{fill:#3C889E;}
	.st3{fill:#FFFFFF;}
	.st4{fill:#DE1118;stroke:#DE1118;stroke-width:2;stroke-miterlimit:10;}
	.st5{fill:#3C889E;stroke:#3C889E;stroke-width:5;stroke-linecap:round;stroke-linejoin:round;}
</style>
<path
   class="st0"
   d="M209.6,481.7l-1.7,9c-0.2,1-0.3,2-0.4,3c-4.7,1.6-9.5,2.9-14.4,3.9L56.3,336.3L45.9,324  c3-7.7,6.8-15.1,11.2-22.1l9.6,11.4L209.6,481.7z"
   id="path4" />
<path
   class="st0"
   d="M220.9,420.9L220.9,420.9l-5.4,29l-43.1-50.7L73.1,281.9c2.7-2.7,5.5-5.3,8.4-7.8s5.9-4.8,9-7l100.7,118.6l0,0  L220.9,420.9z"
   id="path6" />
<path
   class="st0"
   d="M162.4,500.2c-12-0.4-23.8-2.5-35.2-6.2L38.7,389.6c-1.8-11.8-1.9-23.9-0.4-35.8L162.4,500.2z"
   id="path8" />
<path
   class="st0"
   d="M232.2,360l-5.4,29l-105.2-124l-8.8-10.4c7.6-3.3,15.5-5.8,23.6-7.5l8.9,10.5L232.2,360z"
   id="path10" />
<path
   class="st0"
   d="M244.4,300.4c-1.3,2.8-2.3,5.8-2.8,8.9l-3.5,19l-61.6-72.6l-9.4-11.1c2.3,0.1,4.6,0.2,6.9,0.4  c9.6,0.9,19,2.8,28.2,5.7l0,0l11.5,13.5L244.4,300.4z"
   id="path12" />
<path
   class="st0"
   d="M355.6,288.1c-2.1-0.1-4.3-0.2-6.4-0.4c-9.7-0.9-19.3-2.9-28.6-5.9l-88.3-104.1c-1.5-9.6-1.8-19.4-1.1-29.1  c0.2-2.2,0.4-4.5,0.7-6.7l122.5,144.4C354.8,286.9,355.3,287.5,355.6,288.1z"
   id="path14" />
<path
   class="st0"
   d="M410.2,278.1c-7.6,3.3-15.5,5.8-23.6,7.5L239.4,112.1l0,0c3-7.7,6.8-15.1,11.2-22.1l159.3,187.8L410.2,278.1z"
   id="path16" />
<path
   class="st0"
   d="M486.1,162.7L486.1,162.7c0,3-0.1,6.1-0.4,9.1c-0.2,2.4-0.4,4.8-0.8,7.2L360.5,32.5c5.5,0.2,11,0.7,16.4,1.6  c6.4,1,12.6,2.5,18.8,4.5l89,104.9C485.6,149.9,486.1,156.3,486.1,162.7z"
   id="path18" />
<path
   class="st0"
   d="M477.3,208.9c-3,7.7-6.8,15.1-11.2,22c-0.1-0.1-0.2-0.2-0.4-0.4L306.3,42.6c7.6-3.3,15.5-5.8,23.6-7.5  L477.3,208.9z"
   id="path20" />
<path
   class="st0"
   d="M449,251.9c-2.3,2.3-4.7,4.5-7.2,6.6s-5.3,4.3-8.1,6.3c-1.8-0.7-3.4-1.8-4.6-3.2L266.6,70  c2.7-2.8,5.5-5.4,8.5-7.9c3-2.5,5.9-4.8,8.9-6.9l162.6,191.6C447.8,248.2,448.7,250,449,251.9z"
   id="path22" />
<path
   class="st1"
   d="m 302.7,287 c -15,-12.3 -37.15823,-11.46852 -50.85823,2.23148 C 246.44177,283.93148 240.9,279.3 234.6,275.2 h -0.1 c -6.5,-4.3 -13.5,-8 -20.8,-11 -11.9,-4.8 -24.4,-7.7 -37.2,-8.6 -10.5,-0.7 -21,0 -31.2,2 -8.1,1.6 -16.1,4.1 -23.7,7.4 -3,1.3 -5.9,2.7 -8.8,4.2 l 75.2,88.7 c 6.6,7.8 7.9,18.8 3.1,27.9 v 0 c -3.8,7.2 -10.7,12.1 -18.7,13.3 -1.2,0.2 -2.4,0.2 -3.6,0.2 -7.4,0 -14.4,-3.2 -19.2,-8.9 L 74.4,301.8 c -2.8,3.7 -5.4,7.5 -7.8,11.5 -4.3,7.3 -7.8,15 -10.4,23 -3,9.1 -4.9,18.5 -5.7,28 -0.1,1.3 -0.2,2.6 -0.2,3.8 v 0 c -0.7,13.9 1,27.9 5.1,41.2 v 0 c 4.7,15.2 12.4,29.2 22.7,41.4 10.3,12.2 23,22.1 37.3,29.3 v 0 c 1.3,0.7 2.6,1.3 4,1.9 5.9,2.7 10.5,7.5 12.9,13.5 v 0 c 5.2,12.9 -1,27.5 -13.9,32.7 -6.4,2.6 -13.6,2.4 -19.9,-0.5 C 76,517.3 56,502.2 39.9,483.3 -20.1,412 -11.4,305.7 59.4,245.1 c 0.3,-0.3 0.6,-0.5 0.9,-0.7 60,-50 146.14429,-52.44242 208.84429,-6.04242 1.4,1.9 2.98107,3.94566 4.58107,5.84566 7.1,8.4 15.49366,15.8077 24.69366,21.9077 4.5,6 6.18098,13.58906 4.28098,20.88906 z"
   id="path24"
   sodipodi:nodetypes="ccccccccccsscscccccssssssscssccccccccc" />
<path
   class="st2"
   d="M532.6,180.9c-2.9,37.3-18.2,72.6-43.5,100.3c-1.8-0.7-3.7-1.3-5.6-1.8c-14.6-3.4-29.8,2.1-38.8,14.1l-25,33.3  c-25.8,8.9-53.3,11.4-80.3,7.4l0,0l-30.8-40.8c-12.6-16.6-36.2-19.9-52.9-7.4c-1.4,1-2.7,2.2-3.9,3.4c-0.7,0.7-1.3,1.4-1.9,2.1  c-5.1-4.7-10-9.8-14.5-15.1c-0.4-0.4-0.7-0.8-1-1.3h-0.1c-59.2-71.3-50-176.9,20.6-236.9c10.6-9,26.4-7.7,35.4,2.9l93,109.7  c8.9,10.7,7.4,26.5-3.2,35.4c-10.5,8.8-26.1,7.5-35.1-2.9l-75.1-88.5c-2.5,3.2-4.8,6.5-6.9,10c-4.4,7.1-8,14.7-10.8,22.6  c-8,22.9-8.9,47.6-2.6,71l0,0c3.9,14.3,10.5,27.8,19.4,39.6c1.4,1.9,2.9,3.8,4.5,5.7c7.1,8.4,15.4,15.8,24.6,22  c5.2,3.4,10.6,6.5,16.2,9.1c29.9,13.7,64.2,14.5,94.6,2.1c8.2-3.4,16-7.7,23.3-12.8c2.9-2.1,5.8-4.3,8.6-6.6c2.6-2.2,5.1-4.5,7.5-7  c6.3-6.3,11.8-13.3,16.5-20.8c4.4-7.1,8-14.7,10.8-22.6c3.5-9.8,5.7-20,6.5-30.4c0-0.2,0-0.4,0-0.6c1-13.2-0.1-26.5-3.4-39.3l0,0  c-4.4-17.2-12.7-33.1-24.1-46.6C443.4,76.8,429,66,412.8,58.8c-0.4-0.2-0.9-0.4-1.3-0.6c-12.7-5.6-18.5-20.4-12.9-33.1  c5.5-12.6,20.2-18.4,32.8-13c23.9,10.3,45.1,26,62,45.8C522.3,92,536.5,136.3,532.6,180.9z"
   id="path26" />
<g
   id="g32">
	<path
   class="st1"
   d="M246.8,530c-1.5,0-3-0.1-4.5-0.4c-13.7-2.5-22.7-15.5-20.3-29.2c0,0,0,0,0,0l33.7-187.1   c2.4-13.7,15.5-22.7,29.2-20.3c6.3,1.1,11.9,4.6,15.7,9.7L399,434.3c8.3,11.1,6,26.9-5.1,35.2c-11.1,8.3-26.9,6-35.2-5.1L294.9,379   l-23.4,130.3C269.3,521.3,258.9,530,246.8,530z"
   id="path28" />
	<path
   class="st1"
   d="M510.4,530c-12.1,0-22.5-8.7-24.7-20.7l-23.4-130.1l-63.2,85c-8.3,11.1-24,13.5-35.2,5.2   c-11.1-8.3-13.5-24-5.2-35.2l0,0l97.8-131.6c8.3-11.1,24-13.5,35.2-5.2c5.1,3.8,8.6,9.4,9.7,15.7l33.7,187.1   c2.5,13.7-6.6,26.7-20.3,29.2C513.4,529.8,511.9,530,510.4,530L510.4,530z"
   id="path30" />
</g>
<path
   class="st2"
   d="M134.6,72.7c-1.4,1.9-2.9,3.6-4.6,5.1l3.3,7.7l0.8,1.7l-12.2,7.1l-1-1.3l-5.1-6.8c-2.4,0.8-5,1.3-7.5,1.6  c1-2.3,2.3-4.4,3.9-6.3c2-2.4,4.4-4.4,7.1-5.8c2.6-1.4,5.5-2.4,8.5-2.8l0,0C130,72.5,132.3,72.4,134.6,72.7z"
   id="path34" />
<path
   class="st2"
   d="M182.7,187.4c-10.2-0.4-20.4,0.1-30.5,1.5l-40.5-74.7c17.3-2.3,32.9-11.3,43.5-25.2l27.9,51.6  C180.8,156.1,180.6,171.9,182.7,187.4z"
   id="path36" />
<path
   class="st3"
   d="M149.5,54.7l-7.3-2.9c0.3-4.6-0.3-9.2-1.7-13.5l6.5-4.9l1.7-1.3L141.6,20l-1.8,0.8l-7.6,3.3  c-3-3.3-6.5-6-10.5-8l1.2-8.5l0.3-2L109.6,2l-0.7,1.8l-3.2,8c-4.4-0.2-8.8,0.4-13.1,1.7l-5.2-6.8l-1-1.3l-12.1,7.1l0.7,1.7l3.3,7.7  c-3.4,3.1-6.2,6.8-8.2,10.8l-7.9-1.1l-2.5-0.4l-3.6,13.6l2.6,1l7.4,2.9c-0.1,4.7,0.6,9.4,2.2,13.8l-6.4,4.8l-1.6,1.2l7,12.1l2-0.8  l7.7-3.3c2.9,3,6.4,5.5,10.1,7.3l-1.2,8.4l-0.2,1.6l13.6,3.6l0.6-1.5l3.2-8.1c1.7,0.1,3.5,0,5.2-0.2c2.6-0.3,5.1-0.8,7.5-1.6  l5.1,6.8l1,1.3l12.2-7.1l-0.7-1.7l-3.3-7.7c1.7-1.6,3.2-3.3,4.6-5.1c1.2-1.6,2.3-3.2,3.2-5l8,1.1l2.2,0.3l3.6-13.6L149.5,54.7z   M83.3,61.9c-6.7-11.5-2.7-26.3,8.8-32.9s26.3-2.7,32.9,8.8c6.7,11.5,2.8,26.2-8.7,32.9C104.8,77.4,90,73.5,83.3,61.9  C83.3,62,83.3,62,83.3,61.9z"
   id="path38" />
<path
   class="st3"
   d="M133.3,85.6c-2.2,1.8-4.5,3.4-6.9,4.8c-1.8,1-3.6,1.9-5.5,2.6l1,1.3l12.2-7.1L133.3,85.6z M64.3,72.6  c-0.9-1.7-1.7-3.4-2.4-5.2l-1.6,1.2l7,12.1l2-0.8C67.4,77.5,65.7,75.1,64.3,72.6L64.3,72.6z M59.8,31.2l-3.6,13.6l2.6,1  c0.4-4.9,1.6-9.7,3.5-14.2L59.8,31.2z M91.9,94.5c-2-0.6-4.1-1.3-6-2.2l-0.2,1.6l13.6,3.6l0.6-1.5C97.2,95.7,94.5,95.2,91.9,94.5z   M86.5,5.4l-12.2,7.1l0.7,1.7c2.2-1.8,4.5-3.4,6.9-4.8c1.8-1,3.6-1.9,5.5-2.6L86.5,5.4z M133.3,85.6c-2.2,1.8-4.5,3.4-6.9,4.8  c-1.8,1-3.6,1.9-5.5,2.6l1,1.3l12.2-7.1L133.3,85.6z M109.6,2l-0.7,1.8c2.6,0.2,5.1,0.7,7.6,1.4c2.2,0.6,4.3,1.4,6.4,2.4l0.3-2  L109.6,2z M149.5,54.7c-0.5,4.9-1.7,9.6-3.8,14.1l2.2,0.3l3.6-13.6L149.5,54.7z M141.6,20l-1.8,0.8c1.6,1.9,2.9,4,4.2,6.2l0.1,0.2  c1.1,2,2.1,4.1,2.9,6.3l1.7-1.3L141.6,20z M141.6,20l-1.8,0.8c1.6,1.9,2.9,4,4.2,6.2l0.1,0.2c1.1,2,2.1,4.1,2.9,6.3l1.7-1.3  L141.6,20z M149.5,54.7c-0.5,4.9-1.7,9.6-3.8,14.1l2.2,0.3l3.6-13.6L149.5,54.7z M109.6,2l-0.7,1.8c2.6,0.2,5.1,0.7,7.6,1.4  c2.2,0.6,4.3,1.4,6.4,2.4l0.3-2L109.6,2z M133.3,85.6c-2.2,1.8-4.5,3.4-6.9,4.8c-1.8,1-3.6,1.9-5.5,2.6l1,1.3l12.2-7.1L133.3,85.6z   M86.5,5.4l-12.1,7.1l0.7,1.7c2.2-1.8,4.5-3.4,6.9-4.8c1.8-1,3.6-1.9,5.5-2.6L86.5,5.4z M91.9,94.5c-2-0.6-4.1-1.3-6-2.2l-0.2,1.6  l13.6,3.6l0.6-1.5C97.2,95.7,94.5,95.2,91.9,94.5z M59.8,31.2l-3.6,13.6l2.6,1c0.4-4.9,1.6-9.7,3.5-14.2L59.8,31.2z M64.3,72.5  c-0.9-1.7-1.7-3.4-2.4-5.2l-1.6,1.2l7,12.1l2-0.8C67.4,77.5,65.7,75.1,64.3,72.5z M133.3,85.5c-2.2,1.8-4.5,3.4-6.9,4.8  c-1.8,1-3.6,1.9-5.5,2.6l1,1.3l12.2-7.1L133.3,85.5z M133.3,85.5c-2.2,1.8-4.5,3.4-6.9,4.8c-1.8,1-3.6,1.9-5.5,2.6l1,1.3l12.2-7.1  L133.3,85.5z"
   id="path40" />
<path
   class="st4"
   d="M122.7,18.1l-1.1,8L122.7,18.1C122.7,18.1,122.7,18.1,122.7,18.1z M128.7,74.8l2.2,5.1l0,0L128.7,74.8z   M111.6,81.5l1.5,1.9L111.6,81.5L111.6,81.5z M78,78.5L78,78.5l5.2-2.2L78,78.5z"
   id="path42" />
<path
   class="st4"
   d="M113.1,86.4c-0.9,0-1.8-0.4-2.4-1.2l-1.5-1.9c-1-1.3-0.7-3.2,0.6-4.2c0.5-0.4,1.1-0.6,1.8-0.6l0,0  c0.9,0,1.8,0.4,2.4,1.2l1.5,1.9c1,1.3,0.7,3.2-0.6,4.2C114.4,86.2,113.7,86.4,113.1,86.4L113.1,86.4z M131,82.9  c-1.2,0-2.3-0.7-2.8-1.8L126,76c-0.5-1.6,0.4-3.3,2-3.8c1.3-0.4,2.8,0.2,3.5,1.4l2.2,5.1c0.7,1.5-0.1,3.3-1.6,3.9  C131.8,82.8,131.4,82.9,131,82.9L131,82.9z M78,81.5c-1.7,0-3-1.3-3-3c0-1.2,0.7-2.3,1.8-2.8l5.2-2.2c1.6-0.5,3.3,0.4,3.8,1.9  c0.4,1.4-0.2,2.8-1.4,3.5l-5.2,2.3C78.8,81.4,78.4,81.5,78,81.5L78,81.5z M121.6,29h-0.4c-1.6-0.2-2.8-1.7-2.6-3.4l1.1-8  c0.2-1.6,1.8-2.8,3.4-2.5c0.6,0.1,1.2,0.4,1.7,0.8c0.1,0,0.1,0.1,0.1,0.2c0.6,0.7,0.8,1.5,0.7,2.4l-1.1,7.9  C124.3,27.9,123.1,29,121.6,29L121.6,29z M125.7,18.1L125.7,18.1z"
   id="path44" />
<path
   class="st4"
   d="M130.6,68.6L130.6,68.6l4.7-17.9L130.6,68.6z M127.6,72.2L127.6,72.2l-10.1,5.9L127.6,72.2z M82.7,31.6  l11.7-6.8L82.7,31.6L82.7,31.6z M88,85.9L88,85.9l1.2-8.4l0,0L88,85.9z M79.4,23.9L79.4,23.9l2.1,4.9L79.4,23.9L79.4,23.9z   M67.1,50.8l7.4,2.9l0,0L67.1,50.8z"
   id="path46" />
<path
   class="st4"
   d="M88,88.9c-1.7,0-3-1.3-3-3c0-0.1,0-0.3,0-0.4l1.2-8.4c0.3-1.6,1.9-2.7,3.5-2.3c1.5,0.3,2.5,1.7,2.4,3.2L91,86.3  C90.7,87.8,89.5,88.8,88,88.9z M117.5,81c-1.7,0-3-1.4-2.9-3.1c0-1,0.6-2,1.4-2.5l0,0l10.1-5.9c0.5-0.3,1-0.4,1.5-0.4  c-0.1-0.5-0.1-0.9,0-1.4l4.7-17.9c0.6-1.6,2.3-2.3,3.9-1.8c1.3,0.5,2.1,1.9,1.9,3.3l-4.7,17.9c-0.4,1.3-1.6,2.2-2.9,2.2  c0,0.2,0.1,0.4,0.1,0.6c0,1.1-0.6,2.1-1.5,2.6L119,80.6C118.5,80.9,118,81,117.5,81z M74.5,56.7c-0.4,0-0.7-0.1-1.1-0.2L66,53.5  c-1.1-0.5-1.9-1.6-1.9-2.8l0,0c0-1.7,1.3-3,3-3c0.4,0,0.7,0.1,1.1,0.2l7.4,2.9c1.5,0.6,2.3,2.4,1.6,3.9  C76.7,55.9,75.7,56.6,74.5,56.7L74.5,56.7z M82.7,34.5c-0.8,0-1.6-0.3-2.1-0.9l0,0c-0.7-0.7-1-1.6-0.8-2.5c-0.4-0.3-0.8-0.7-1-1.2  l-2.1-4.9c-0.7-1.5,0-3.3,1.6-3.9c0.4-0.2,0.8-0.2,1.2-0.2l0,0c1.2,0,2.3,0.7,2.7,1.8l2,4.6l8.8-5.1c1.5-0.7,3.3-0.1,4,1.4  c0.6,1.3,0.2,2.9-1,3.7l0,0l-11.7,6.8C83.8,34.4,83.2,34.6,82.7,34.5z"
   id="path48" />
<polygon
   class="st4"
   points="79.4,23.9 81.5,28.8 79.4,23.9 79.4,23.9 "
   id="polygon50" />
<path
   class="st4"
   d="M81.5,31.7c-1.2,0-2.3-0.7-2.7-1.8L76.6,25c-0.7-1.5,0.1-3.3,1.6-3.9c0.4-0.2,0.8-0.2,1.2-0.2  c1.2,0,2.3,0.7,2.8,1.8l2.1,4.9c0.6,1.5-0.1,3.3-1.6,3.9C82.3,31.7,81.9,31.7,81.5,31.7z"
   id="path52" />
<polygon
   class="st4"
   points="94.4,24.8 82.7,31.6 82.7,31.5 "
   id="polygon54" />
<path
   class="st4"
   d="M82.7,34.5c-1.7,0-3-1.3-3-3c0-0.1,0-0.3,0-0.4c0.1-0.9,0.7-1.7,1.5-2.2l11.8-6.8c1.5-0.7,3.3-0.1,4,1.4  c0.6,1.3,0.2,2.9-1,3.7l0,0l-11.7,6.8C83.8,34.4,83.2,34.6,82.7,34.5z"
   id="path56" />
<path
   class="st4"
   d="M150.5,56.8l-7.3-2.9c0.3-4.6-0.3-9.2-1.7-13.5l6.5-4.9l1.7-1.3l-7-12.2l-1.8,0.8l-7.6,3.3c-3-3.3-6.5-6-10.5-8  l-1.1,7.9l1.1-8l1.1-8.4l0.3-2L110.6,4l-0.7,1.8l-3.2,8l0,0c-4.4-0.2-8.8,0.4-13.1,1.7l-5.2-6.8l-1-1.3l-12.2,7.1l0.8,1.7l3.3,7.7  l0,0l2.1,4.9l-2.1-4.9c-3.4,3.1-6.2,6.7-8.2,10.8l8,1.2l-8-1.1l-7.9-1.1l-2.5-0.3l-3.6,13.6l2.5,1l7.4,2.9l0,0l7.4,2.9l0,0l-7.4-2.9  c-0.1,4.7,0.6,9.3,2.2,13.8l0,0l-6.4,4.8l-1.6,1.2l7,12.2l2-0.8l7.7-3.3l0,0l5.2-2.2l-5.2,2.2c2.9,3,6.3,5.5,10.1,7.3l1.2-8.4l0,0  L88,85.9l0,0l-1.2,8.4l-0.2,1.6l13.6,3.6l0.6-1.5l3.2-8.1c1.7,0.1,3.5,0,5.2-0.2c2.6-0.3,5.1-0.8,7.5-1.6l5.1,6.8l1,1.3l12.2-7.1  l-0.7-1.7l-3.3-7.7l0,0l-2.2-5.1l2.2,5.1c1.7-1.6,3.2-3.3,4.6-5.1c1.2-1.6,2.3-3.2,3.2-5l8,1.1l2.2,0.3l3.6-13.6L150.5,56.8z   M94.4,24.8l-11.7,6.8l0,0L94.4,24.8z M111.6,81.4L111.6,81.4l1.5,1.9L111.6,81.4z M117.5,78l10.1-5.9l0,0L117.5,78z M117.3,72.7  C105.7,79.4,91,75.5,84.3,64C77.6,52.4,81.5,37.7,93,31c11.5-6.7,26.3-2.8,32.9,8.7c0,0,0,0,0,0C132.7,51.3,128.8,66,117.3,72.7  L117.3,72.7z M130.6,68.6l4.7-17.9L130.6,68.6L130.6,68.6z"
   id="path58" />
<path
   class="st4"
   d="M100.2,102.5c-0.3,0-0.5,0-0.8-0.1l-13.5-3.6c-1.4-0.4-2.4-1.8-2.2-3.3l1.1-8c-2.7-1.5-5.2-3.4-7.5-5.5  l-7.8,3.4c-1.4,0.6-3,0.1-3.8-1.2l-7-12.2c-0.8-1.3-0.4-3,0.8-3.9l6.3-4.7c-1.1-3.4-1.6-7-1.7-10.6l-8-3.2c-1.4-0.6-2.2-2.1-1.8-3.5  l3.6-13.6c0.4-1.5,1.8-2.4,3.3-2.2l8.3,1.2c1.7-3,3.8-5.8,6.3-8.3l-3.2-7.5c-0.6-1.4-0.1-3,1.2-3.8l12.1-7c1.3-0.8,3-0.4,3.9,0.8  l4.9,6.5c3.2-0.8,6.6-1.3,9.9-1.3l3.2-8c0.6-1.4,2.1-2.2,3.5-1.8l13.5,3.6c1.5,0.4,2.4,1.8,2.2,3.3l-1.2,8.4c2.9,1.7,5.6,3.7,8,6.1  l7.5-3.2c1.4-0.6,3,0,3.8,1.2l7,12.2c0.8,1.3,0.4,3-0.8,3.9l-6.5,4.9c0.9,3.4,1.3,6.9,1.3,10.4l7.5,3c1.4,0.6,2.2,2.1,1.8,3.6  l-3.6,13.5c-0.4,1.5-1.8,2.4-3.3,2.2l-8.1-1.2c-0.7,1.2-1.6,2.4-2.4,3.6c-1.1,1.4-2.2,2.7-3.4,4l3.2,7.5c0.6,1.4,0.1,3.1-1.3,3.9  l-12.2,7c-1.3,0.7-3,0.4-3.9-0.8l-4.9-6.5c-2,0.5-4,0.9-6.1,1.1c-1.2,0.1-2.4,0.2-3.5,0.2l-3.1,7.7  C102.5,101.7,101.4,102.5,100.2,102.5z M89.9,93.7l8.5,2.2l2.8-7.1c0.5-1.2,1.6-1.9,2.9-1.9c1.6,0,3.2,0,4.8-0.2  c1.1-0.1,2.2-0.3,3.4-0.5c-0.6-0.2-1.1-0.5-1.5-1l-1.5-1.9c-1-1.3-0.7-3.2,0.6-4.2c0.5-0.4,1.1-0.6,1.8-0.6l0,0  c0.9,0,1.8,0.4,2.4,1.2l1.5,1.9c0.9,1.2,0.8,2.9-0.3,3.9l0.6-0.2c1.2-0.4,2.5,0,3.3,1l4.5,6l7.6-4.4l-3-6.9l-0.1-0.2l-1.9-4.4  l-7.2,4.2c-1.4,0.8-3.3,0.3-4.1-1.1c-0.4-0.7-0.5-1.5-0.3-2.2c-14,5.2-29.6-2-34.8-16c-3.5-9.5-1.4-20.1,5.4-27.6l-1,0.6  c-0.7,0.4-1.6,0.5-2.3,0.3c0.8,1.5,0.2,3.3-1.3,4.1c-0.5,0.3-1.2,0.4-1.8,0.3L63,36.5L60.8,45l7.2,2.9c0.1,0,0.2,0,0.3,0.1l7.4,2.9  c1.5,0.7,2.1,2.5,1.4,4c-0.6,1.3-2.2,2-3.6,1.5l-3.1-1.2c0.3,2.8,0.9,5.6,1.8,8.3c0.3,0.9,0.2,1.9-0.4,2.7c-0.2,0.3-0.5,0.6-0.8,0.8  l-5.7,4.3l4.4,7.6l7.2-3.1l0.2-0.1l5-2.2c1.6-0.5,3.3,0.4,3.8,1.9c0.4,1.4-0.2,2.8-1.4,3.5l-0.9,0.4c0.7,0.6,1.5,1.1,2.3,1.6l0.6-4  c0.3-1.6,1.9-2.7,3.5-2.3c1.5,0.3,2.5,1.7,2.4,3.2l-1.2,8.4c0,0.1,0,0.2-0.1,0.3L89.9,93.7z M130.6,72.4c0.4,0.3,0.7,0.7,0.9,1.2  l0.4,1c0.4-0.5,0.9-1,1.3-1.6c1.1-1.4,2.1-3,2.9-4.6c0.6-1.1,1.8-1.8,3.1-1.6l7.6,1.1l2.2-8.4l-7-2.8c-1.2-0.5-1.9-1.7-1.9-2.9  c0.2-4.2-0.3-8.4-1.6-12.4c-0.4-1.2,0-2.5,1.1-3.3l6-4.5l-4.4-7.6l-7,3c-1.2,0.5-2.5,0.2-3.4-0.7c-1.8-1.9-3.8-3.7-5.9-5.2l-0.5,3.5  c-0.4,1.6-2,2.6-3.6,2.3c-1.4-0.3-2.4-1.6-2.3-3.1l2.2-15.8l-8.4-2.2l-2.7,7.3c-0.4,1.2-1.6,2-2.9,2c-4.1-0.2-8.1,0.4-12,1.6  c-1.2,0.4-2.5,0-3.3-1l-4.6-6l-7.5,4.4l2.9,6.7c0,0.1,0.1,0.2,0.1,0.2l2,4.6l8.7-5.2c1.4-0.8,3.3-0.3,4.1,1.2  c0.5,0.8,0.5,1.8,0.1,2.7c14.3-4.4,29.5,3.5,33.9,17.9c0.7,2.2,1.1,4.5,1.2,6.8l0.2-0.8c0.6-1.6,2.3-2.3,3.9-1.8  c1.3,0.5,2.1,1.9,1.9,3.3l-4.7,17.9c-0.4,1.3-1.6,2.2-2.9,2.2c0,0.2,0.1,0.4,0.1,0.6C130.6,72.3,130.6,72.3,130.6,72.4L130.6,72.4z   M105.1,30.8C93.5,30.8,84,40.2,84,51.9S93.5,73,105.2,73c3.7,0,7.3-1,10.6-2.8l0,0c10.1-5.9,13.5-18.8,7.7-28.9  C119.6,34.7,112.7,30.7,105.1,30.8z M128.1,66.3c-0.9,1.4-1.9,2.7-3,3.9l1-0.6c0.5-0.3,1-0.4,1.5-0.4c-0.1-0.5-0.1-0.9,0-1.4  L128.1,66.3z M76,32.4l3.7,0.5c0.1,0,0.3,0.1,0.4,0.1c-0.3-0.6-0.4-1.2-0.3-1.8c-0.4-0.3-0.8-0.7-1-1.2l-0.3-0.8  C77.5,30.2,76.7,31.2,76,32.4z"
   id="path60" />
<polygon
   class="st4"
   points="127.6,72.2 127.6,72.2 117.5,78.1 "
   id="polygon62" />
<path
   class="st4"
   d="M117.5,81c-1.7,0-3-1.4-2.9-3.1c0-1,0.6-2,1.4-2.5l10.1-5.9c1.4-0.8,3.3-0.3,4.1,1.1c0.3,0.4,0.4,0.9,0.4,1.5  l0,0c0,1.1-0.6,2-1.5,2.6L119,80.6C118.6,80.9,118,81,117.5,81z"
   id="path64" />
<polygon
   class="st4"
   points="74.5,53.7 74.5,53.7 67.1,50.8 67.1,50.7 "
   id="polygon66" />
<path
   class="st4"
   d="M74.5,56.7c-0.4,0-0.8-0.1-1.1-0.2L66,53.5c-1.5-0.7-2.1-2.5-1.4-4c0.6-1.3,2.2-2,3.6-1.5l7.4,2.9  c1.1,0.5,1.9,1.6,1.9,2.8l0,0c0,1-0.5,1.9-1.3,2.5C75.7,56.5,75.1,56.7,74.5,56.7z"
   id="path68" />
<polygon
   class="st4"
   points="135.3,50.7 130.6,68.6 130.6,68.6 "
   id="polygon70" />
<path
   class="st4"
   d="M130.6,71.6c-1.7,0-3-1.3-3-3c0-0.3,0-0.5,0.1-0.7l4.7-17.9c0.6-1.6,2.3-2.3,3.9-1.8c1.3,0.5,2.1,1.9,1.9,3.3  l-4.7,17.9C133.1,70.6,131.9,71.5,130.6,71.6z"
   id="path72" />
<path
   class="st4"
   d="M89.2,77.5L88,85.9l0,0L89.2,77.5L89.2,77.5z"
   id="path74" />
<path
   class="st4"
   d="M88,88.9c-1.7,0-3-1.3-3-3c0-0.1,0-0.3,0-0.4l1.2-8.4c0.3-1.6,1.9-2.7,3.5-2.3c1.5,0.3,2.5,1.7,2.4,3.2L91,86.3  C90.7,87.8,89.5,88.8,88,88.9z"
   id="path76" />
<path
   class="st5"
   d="M279.9,506.7c1.6,0.9,3.3,1.3,5.1,1.3c2.9,0,4.6-1.5,4.6-3.5c0-1.9-1.2-3-4.1-4.1c-3.6-1.2-5.8-2.9-5.8-5.9  c0-3.2,2.8-5.6,7.1-5.6c1.7-0.1,3.3,0.3,4.9,1l-0.8,2.2c-1.3-0.7-2.7-1-4.2-1c-3,0-4.1,1.7-4.1,3.1c0,1.9,1.3,2.9,4.4,4  c3.7,1.3,5.6,3,5.6,6.1c0,3.2-2.5,6-7.7,6c-1.9,0-3.9-0.4-5.6-1.3L279.9,506.7z"
   id="path78" />
<path
   class="st5"
   d="M306.1,489.3v8.6h10.6v-8.7h2.9v20.7h-2.9v-9.7h-10.6v9.7h-2.8v-20.6H306.1z"
   id="path80" />
<path
   class="st5"
   d="M342.7,500.2h-8.5v7.5h9.5v2.2h-12.3v-20.7h11.8v2.2h-9v6.5h8.5V500.2z"
   id="path82" />
<path
   class="st5"
   d="M354.2,489.3H366v2.2h-9v6.9h8.3v2.2H357v9.4h-2.8L354.2,489.3z"
   id="path84" />
<path
   class="st5"
   d="M377,489.3h11.8v2.2h-9v6.9h8.3v2.2h-8.3v9.4h-2.8L377,489.3z"
   id="path86" />
<path
   class="st5"
   d="M402.5,489.3v20.7h-2.8v-20.7H402.5z"
   id="path88" />
<path
   class="st5"
   d="M425.7,500.2h-8.5v7.5h9.5v2.2h-12.3v-20.7h11.8v2.2h-9v6.5h8.5L425.7,500.2z"
   id="path90" />
<path
   class="st5"
   d="M437.3,489.3h2.8v18.4h9.4v2.2h-12.2V489.3z"
   id="path92" />
<path
   class="st5"
   d="M459.5,489.5c2-0.3,4-0.4,6-0.4c4.1,0,7,0.9,8.9,2.6c2.1,1.9,3.2,4.6,3.1,7.4c0.1,3-1,5.9-3.2,8  c-2,1.9-5.4,3-9.7,3c-1.7,0-3.4-0.1-5.1-0.2L459.5,489.5z M462.4,507.8c0.9,0.1,1.9,0.2,2.9,0.2c6,0,9.3-3.2,9.3-8.8  c0-4.9-2.9-8-8.9-8c-1.1,0-2.2,0.1-3.3,0.3L462.4,507.8z"
   id="path94" />
</svg>
