<svg xmlns="http://www.w3.org/2000/svg" width="248.009" height="139.219" viewBox="0 0 65.619 36.835" xmlns:v="https://vecta.io/nano"><path d="M26.031-.001c-3.87 0-6.978.248-9.327 2.034-2.332 1.786-3.497 4.324-3.497 7.615 0 4.696 2.439 7.904 7.317 9.624.38.149 1 .364 1.86.645l2.803.843 1.811.521c3.043.876 4.564 2.456 4.564 4.738 0 1.72-.546 3.043-1.637 3.969-1.091.91-2.704 1.364-4.837 1.364-1.736 0-3.522-.265-5.358-.794-1.819-.529-3.506-1.224-5.06-2.084l-1.637 5.333c3.473 2.017 7.4 3.026 11.782 3.026 4.151 0 7.45-.926 9.897-2.778 2.447-1.869 3.671-4.531 3.671-7.987 0-2.894-.719-5.151-2.158-6.772-1.422-1.621-3.795-2.977-7.119-4.068l-3.026-.967-2.927-.967c-2.001-.612-3.001-1.927-3.001-3.944.066-1.637.604-2.803 1.612-3.497 1.025-.711 2.538-.496 4.539-.496h12.75 18.504l-7.465 10.381H38.444v5.358h7.797l-7.857 10.926v4.316h27.211l.025-5.358H46.669l7.132-9.885H65.56v-5.358h-7.894l7.829-10.852V-.001H39.054z" fill="#d6d3d1"/><circle cx="4.912" cy="4.912" r="4.912" fill="#f59e0b"/><circle cx="4.912" cy="18.417" r="4.912" fill="#22c55e"/><circle cx="4.912" cy="31.923" r="4.912" fill="#ef4444"/></svg>