<svg xmlns="http://www.w3.org/2000/svg" width="278.011" height="169.213" viewBox="0 0 73.557 44.771" xmlns:v="https://vecta.io/nano"><path d="M3.969 0A3.97 3.97 0 0 0 0 3.969v36.834a3.97 3.97 0 0 0 3.969 3.969h65.619a3.97 3.97 0 0 0 3.969-3.969V3.969A3.97 3.97 0 0 0 69.588 0z" fill="#1c1917"/><path d="M30 3.967c-3.87 0-6.978.248-9.327 2.034-2.332 1.786-3.497 4.324-3.497 7.615 0 4.696 2.439 7.904 7.317 9.624.38.149 1 .364 1.86.645l2.803.843 1.811.521c3.043.876 4.564 2.456 4.564 4.738 0 1.72-.546 3.043-1.637 3.969-1.091.91-2.704 1.364-4.837 1.364-1.736 0-3.522-.265-5.358-.794-1.819-.529-3.506-1.224-5.06-2.084l-1.637 5.333c3.473 2.017 7.4 3.026 11.782 3.026 4.151 0 7.45-.926 9.897-2.778 2.447-1.869 3.671-4.531 3.671-7.987 0-2.894-.719-5.151-2.158-6.772-1.422-1.621-3.795-2.977-7.119-4.068l-3.026-.967-2.927-.967c-2.001-.612-3.001-1.927-3.001-3.944.066-1.637.604-2.803 1.612-3.497 1.025-.711 2.538-.496 4.539-.496h12.75 18.504l-7.465 10.381H42.413v5.358h7.797L42.353 35.99v4.316h27.211l.025-5.358H50.638l7.132-9.885h11.759v-5.358h-7.894l7.829-10.852V3.967H43.023z" fill="#d6d3d1"/><circle cx="8.881" cy="8.88" r="4.912" fill="#f59e0b"/><circle cx="8.881" cy="22.385" r="4.912" fill="#22c55e"/><circle cx="8.881" cy="35.891" r="4.912" fill="#ef4444"/></svg>